<?xml version="1.0" encoding="utf-8"?>
<!-- Generator: Adobe Illustrator 25.4.1, SVG Export Plug-In . SVG Version: 6.00 Build 0)  -->
<svg version="1.1" id="レイヤー_1" xmlns="http://www.w3.org/2000/svg" xmlns:xlink="http://www.w3.org/1999/xlink" x="0px"
	 y="0px" viewBox="0 0 327.3 312.3" style="enable-background:new 0 0 327.3 312.3;" xml:space="preserve">
<style type="text/css">
	.st0{fill:#FFFFFF;}
	.st1{enable-background:new    ;}
</style>
<path class="st0" d="M163.6,28.9c70.3,0,127.3,57,127.3,127.2c0,33.8-13.4,66.1-37.3,90c-49.7,49.7-130.3,49.7-180,0
	s-49.7-130.3,0-180C97.4,42.2,129.9,28.8,163.6,28.9 M163.6,10.1c-80.6,0-146,65.4-146,146s65.4,146,146,146s146-65.4,146-146
	S244.3,10.1,163.6,10.1C163.6,10.1,163.6,10.1,163.6,10.1z"/>
<g class="st1">
	<path class="st0" d="M107.2,120.6c0-7.2,2.3-14.5,6.9-21.9c4.6-7.4,11.4-13.5,20.2-18.3c8.9-4.8,19.2-7.3,31-7.3
		c11,0,20.7,2,29.1,6.1c8.4,4,14.9,9.6,19.5,16.5c4.6,7,6.9,14.5,6.9,22.7c0,6.4-1.3,12.1-3.9,16.9c-2.6,4.8-5.7,9-9.3,12.5
		c-3.6,3.5-10,9.4-19.4,17.8c-2.6,2.3-4.6,4.4-6.2,6.2c-1.6,1.8-2.7,3.4-3.5,4.9c-0.8,1.5-1.3,3-1.8,4.4c-0.4,1.5-1,4.1-1.9,7.8
		c-1.4,7.9-5.9,11.8-13.5,11.8c-3.9,0-7.2-1.3-9.9-3.9c-2.7-2.6-4-6.4-4-11.5c0-6.4,1-11.9,3-16.5c2-4.7,4.6-8.7,7.8-12.3
		c3.3-3.5,7.6-7.7,13.2-12.5c4.8-4.2,8.3-7.4,10.5-9.6c2.2-2.2,4-4.6,5.5-7.2c1.5-2.6,2.2-5.5,2.2-8.6c0-6.1-2.3-11.2-6.8-15.3
		c-4.5-4.2-10.3-6.2-17.4-6.2c-8.3,0-14.5,2.1-18.4,6.3c-3.9,4.2-7.3,10.4-10,18.6c-2.6,8.6-7.5,12.8-14.6,12.8
		c-4.2,0-7.8-1.5-10.7-4.5C108.7,127.3,107.2,124,107.2,120.6z M162.6,245c-4.6,0-8.6-1.5-12.1-4.5c-3.4-3-5.2-7.2-5.2-12.5
		c0-4.8,1.7-8.8,5-12c3.3-3.3,7.4-4.9,12.3-4.9c4.8,0,8.8,1.6,12,4.9c3.3,3.3,4.9,7.3,4.9,12c0,5.3-1.7,9.5-5.1,12.5
		C171,243.5,167.1,245,162.6,245z"/>
</g>
</svg>
